<!DOCTYPE svg PUBLIC "-//W3C//DTD SVG 1.1//EN" "https://www.w3.org/Graphics/SVG/1.1/DTD/svg11.dtd"><svg xmlns="http://www.w3.org/2000/svg" class="sc-kzqdkY bHJfVD graph" data-testid="graph" role="img" aria-labelledby="polymath-graph-title" width="1370" height="1607"><title id="polymath-graph-title">Workflow Studio State Machine Graph</title><g transform="translate(12,12)" class="new-look-graph"><g class="nodes"><g class="node-container" transform="translate(713,22)"><g><circle class="sc-fBWQRz eHdOCr shape" r="22"/><text class="sc-bbSZdi hTlXKS label"><tspan xml:space="preserve" text-anchor="middle" alignment-baseline="central">Start</tspan></text></g></g><g class="node-container" transform="translate(713,103.5)"><g class="sc-gFqAkR koPDWw node state Choice" data-testid="graph-ValidateInput" data-state-id="ValidateInput" data-state-type="Choice"><g class="new-look-state-node "><rect x="-120" y="-24.5" width="240" height="49" rx="3" ry="3"/><g class="handle" transform="translate(-120,-24.5)"><path d="M5,16 L5,34 M8,16 L8,34"/></g><g class="icon" transform="translate(-104,-24)"><rect fill="var(--color-background-container-header-9ekpze, #fafafa)" x="0.0361026108" y="0.0181291967" width="48" height="48"/><line x1="47.5" y1="0.49122807" x2="47.5" y2="47.5" stroke="var(--color-board-placeholder-active-e71qda, #d5dbdb)" stroke-linecap="square"/><line x1="0.5" y1="0.49122807" x2="0.5" y2="47.5" stroke="var(--color-board-placeholder-active-e71qda, #d5dbdb)" stroke-linecap="square"/><use href="#icon-flow-choice"/></g><g class="text-lines" transform="translate(-48,-24.5)"><text transform="translate(0,17)" class="line1"><tspan xml:space="preserve" text-anchor="start">Choice state</tspan></text><text transform="translate(0,35.5)" class="line2 label"><tspan xml:space="preserve" text-anchor="start">ValidateInput</tspan></text></g></g></g></g><g class="node-container" transform="translate(595.5,204)"><g class="sc-gFqAkR koPDWw node state Task" data-testid="graph-StartTranscriptionJob" data-state-id="StartTranscriptionJob" data-state-type="Task"><g class="new-look-state-node "><rect x="-131" y="-24.5" width="262" height="49" rx="3" ry="3"/><g class="handle" transform="translate(-131,-24.5)"><path d="M5,16 L5,34 M8,16 L8,34"/></g><g class="icon" transform="translate(-115,-24)"><rect fill="var(--color-background-container-header-9ekpze, #fafafa)" x="0.0361026108" y="0.0181291967" width="48" height="48"/><line x1="47.5" y1="0.49122807" x2="47.5" y2="47.5" stroke="var(--color-board-placeholder-active-e71qda, #d5dbdb)" stroke-linecap="square"/><line x1="0.5" y1="0.49122807" x2="0.5" y2="47.5" stroke="var(--color-board-placeholder-active-e71qda, #d5dbdb)" stroke-linecap="square"/><use href="#icon-service-transcribe" aria-hidden="true"><title>Amazon Transcribe</title></use></g><g class="text-lines" transform="translate(-59,-24.5)"><text transform="translate(0,17)" class="line1"><tspan xml:space="preserve" text-anchor="start">Transcribe: StartTranscriptionJob</tspan></text><text transform="translate(0,35.5)" class="line2 label"><tspan xml:space="preserve" text-anchor="start">StartTranscriptionJob</tspan></text></g></g></g></g><g class="node-container" transform="translate(1226,573)"><g class="sc-gFqAkR koPDWw node state Fail" data-testid="graph-Fail" data-state-id="Fail" data-state-type="Fail"><g class="new-look-state-node "><rect x="-120" y="-24.5" width="240" height="49" rx="3" ry="3"/><g class="handle" transform="translate(-120,-24.5)"><path d="M5,16 L5,34 M8,16 L8,34"/></g><g class="icon" transform="translate(-104,-24)"><rect fill="var(--color-background-container-header-9ekpze, #fafafa)" x="0.0361026108" y="0.0181291967" width="48" height="48"/><line x1="47.5" y1="0.49122807" x2="47.5" y2="47.5" stroke="var(--color-board-placeholder-active-e71qda, #d5dbdb)" stroke-linecap="square"/><line x1="0.5" y1="0.49122807" x2="0.5" y2="47.5" stroke="var(--color-board-placeholder-active-e71qda, #d5dbdb)" stroke-linecap="square"/><use href="#icon-flow-fail"/></g><g class="text-lines" transform="translate(-48,-24.5)"><text transform="translate(0,17)" class="line1"><tspan xml:space="preserve" text-anchor="start">Fail state</tspan></text><text transform="translate(0,35.5)" class="line2 label"><tspan xml:space="preserve" text-anchor="start">Fail</tspan></text></g></g></g></g><g class="node-container" transform="translate(595.5,288)"><g class="sc-gFqAkR koPDWw node state Wait" data-testid="graph-Wait 30 Seconds" data-state-id="Wait 30 Seconds" data-state-type="Wait"><g class="new-look-state-node "><rect x="-120" y="-24.5" width="240" height="49" rx="3" ry="3"/><g class="handle" transform="translate(-120,-24.5)"><path d="M5,16 L5,34 M8,16 L8,34"/></g><g class="icon" transform="translate(-104,-24)"><rect fill="var(--color-background-container-header-9ekpze, #fafafa)" x="0.0361026108" y="0.0181291967" width="48" height="48"/><line x1="47.5" y1="0.49122807" x2="47.5" y2="47.5" stroke="var(--color-board-placeholder-active-e71qda, #d5dbdb)" stroke-linecap="square"/><line x1="0.5" y1="0.49122807" x2="0.5" y2="47.5" stroke="var(--color-board-placeholder-active-e71qda, #d5dbdb)" stroke-linecap="square"/><use href="#icon-flow-wait"/></g><g class="text-lines" transform="translate(-48,-24.5)"><text transform="translate(0,17)" class="line1"><tspan xml:space="preserve" text-anchor="start">Wait state</tspan></text><text transform="translate(0,35.5)" class="line2 label"><tspan xml:space="preserve" text-anchor="start">Wait 30 Seconds</tspan></text></g></g></g></g><g class="node-container" transform="translate(514.5,388.5)"><g class="sc-gFqAkR koPDWw node state Task" data-testid="graph-GetTranscriptionJob" data-state-id="GetTranscriptionJob" data-state-type="Task"><g class="new-look-state-node "><rect x="-127" y="-24.5" width="254" height="49" rx="3" ry="3"/><g class="handle" transform="translate(-127,-24.5)"><path d="M5,16 L5,34 M8,16 L8,34"/></g><g class="icon" transform="translate(-111,-24)"><rect fill="var(--color-background-container-header-9ekpze, #fafafa)" x="0.0361026108" y="0.0181291967" width="48" height="48"/><line x1="47.5" y1="0.49122807" x2="47.5" y2="47.5" stroke="var(--color-board-placeholder-active-e71qda, #d5dbdb)" stroke-linecap="square"/><line x1="0.5" y1="0.49122807" x2="0.5" y2="47.5" stroke="var(--color-board-placeholder-active-e71qda, #d5dbdb)" stroke-linecap="square"/><use href="#icon-service-transcribe" aria-hidden="true"><title>Amazon Transcribe</title></use></g><g class="text-lines" transform="translate(-55,-24.5)"><text transform="translate(0,17)" class="line1"><tspan xml:space="preserve" text-anchor="start">Transcribe: GetTranscriptionJob</tspan></text><text transform="translate(0,35.5)" class="line2 label"><tspan xml:space="preserve" text-anchor="start">GetTranscriptionJob</tspan></text></g></g></g></g><g class="node-container" transform="translate(595.5,472.5)"><g class="sc-gFqAkR koPDWw node state Choice" data-testid="graph-Job Complete?" data-state-id="Job Complete?" data-state-type="Choice"><g class="new-look-state-node "><rect x="-120" y="-24.5" width="240" height="49" rx="3" ry="3"/><g class="handle" transform="translate(-120,-24.5)"><path d="M5,16 L5,34 M8,16 L8,34"/></g><g class="icon" transform="translate(-104,-24)"><rect fill="var(--color-background-container-header-9ekpze, #fafafa)" x="0.0361026108" y="0.0181291967" width="48" height="48"/><line x1="47.5" y1="0.49122807" x2="47.5" y2="47.5" stroke="var(--color-board-placeholder-active-e71qda, #d5dbdb)" stroke-linecap="square"/><line x1="0.5" y1="0.49122807" x2="0.5" y2="47.5" stroke="var(--color-board-placeholder-active-e71qda, #d5dbdb)" stroke-linecap="square"/><use href="#icon-flow-choice"/></g><g class="text-lines" transform="translate(-48,-24.5)"><text transform="translate(0,17)" class="line1"><tspan xml:space="preserve" text-anchor="start">Choice state</tspan></text><text transform="translate(0,35.5)" class="line2 label"><tspan xml:space="preserve" text-anchor="start">Job Complete?</tspan></text></g></g></g></g><g class="node-container" transform="translate(595.5,573)"><g class="sc-gFqAkR koPDWw node state Task" data-testid="graph-Extract Transcript" data-state-id="Extract Transcript" data-state-type="Task"><g class="new-look-state-node "><rect x="-120" y="-24.5" width="240" height="49" rx="3" ry="3"/><g class="handle" transform="translate(-120,-24.5)"><path d="M5,16 L5,34 M8,16 L8,34"/></g><g class="icon" transform="translate(-104,-24)"><rect fill="var(--color-background-container-header-9ekpze, #fafafa)" x="0.0361026108" y="0.0181291967" width="48" height="48"/><line x1="47.5" y1="0.49122807" x2="47.5" y2="47.5" stroke="var(--color-board-placeholder-active-e71qda, #d5dbdb)" stroke-linecap="square"/><line x1="0.5" y1="0.49122807" x2="0.5" y2="47.5" stroke="var(--color-board-placeholder-active-e71qda, #d5dbdb)" stroke-linecap="square"/><use href="#icon-service-lam" aria-hidden="true"><title>Lambda</title></use></g><g class="text-lines" transform="translate(-48,-24.5)"><text transform="translate(0,17)" class="line1"><tspan xml:space="preserve" text-anchor="start">Lambda: Invoke</tspan></text><text transform="translate(0,35.5)" class="line2 label"><tspan xml:space="preserve" text-anchor="start">Extract Transcript</tspan></text></g></g></g></g><g class="node-container" transform="translate(595.5,942)"><g class="sc-gFqAkR koPDWw node state container Parallel" data-testid="graph-Analysis" data-state-id="Analysis" data-state-type="Parallel"><g class="new-look-state-node "><g class="bounding-box" transform="translate(0,5)"><rect class="sc-uVWWZ gKTErz shape" rx="7" ry="7" x="-595.5" y="-309.5" width="1191" height="614"/><g class="content" transform="translate(-595.5,-309.5)"><g class="branch" transform="translate(20,89)"><g class="branchInsertArea" data-insertion-index="0" data-parent-state-id="Analysis" id="Analysis:0" x="-20" y="0" width="20" height="505"><rect x="-20" y="0" width="20" height="505" stroke="none" fill="none"/><path d="M-10,0 l0,505" stroke="none" fill="none"/></g><g transform=""><g class="nodes"><g class="node-container" transform="translate(270,107)"><g class="sc-gFqAkR koPDWw node state container Parallel" data-testid="graph-Bedrock Analysis" data-state-id="Bedrock Analysis" data-state-type="Parallel"><g class="new-look-state-node "><g class="bounding-box" transform="translate(0,5)"><rect class="sc-uVWWZ gKTErz shape" rx="7" ry="7" x="-270" y="-107" width="540" height="209"/><g class="content" transform="translate(-270,-107)"><g class="branch" transform="translate(20,89)"><g class="branchInsertArea" data-insertion-index="0" data-parent-state-id="Bedrock Analysis" id="Bedrock Analysis:0" x="-20" y="0" width="20" height="100"><rect x="-20" y="0" width="20" height="100" stroke="none" fill="none"/><path d="M-10,0 l0,100" stroke="none" fill="none"/></g><g transform=""><g class="nodes"><g class="node-container" transform="translate(120,24.5)"><g class="sc-gFqAkR koPDWw node state Task" data-testid="graph-Summarize" data-state-id="Summarize" data-state-type="Task"><g class="new-look-state-node "><rect x="-120" y="-24.5" width="240" height="49" rx="3" ry="3"/><g class="handle" transform="translate(-120,-24.5)"><path d="M5,16 L5,34 M8,16 L8,34"/></g><g class="icon" transform="translate(-104,-24)"><rect fill="var(--color-background-container-header-9ekpze, #fafafa)" x="0.0361026108" y="0.0181291967" width="48" height="48"/><line x1="47.5" y1="0.49122807" x2="47.5" y2="47.5" stroke="var(--color-board-placeholder-active-e71qda, #d5dbdb)" stroke-linecap="square"/><line x1="0.5" y1="0.49122807" x2="0.5" y2="47.5" stroke="var(--color-board-placeholder-active-e71qda, #d5dbdb)" stroke-linecap="square"/><use href="#icon-service-amazonbedrock" aria-hidden="true"><title>Amazon Bedrock</title></use></g><g class="text-lines" transform="translate(-48,-24.5)"><text transform="translate(0,17)" class="line1"><tspan xml:space="preserve" text-anchor="start">Bedrock: InvokeModel</tspan></text><text transform="translate(0,35.5)" class="line2 label"><tspan xml:space="preserve" text-anchor="start">Summarize</tspan></text></g></g></g></g><g class="node-container" transform="translate(120,92)"><g><circle class="sc-hknOHE hNvXgC shape" r="8"/></g></g></g><g class="edges"><g class="sc-ikkxIA gKodPg edge"><path id="state-Summarize:end:normal" d="M120,49L120,51.916666666666664C120,54.833333333333336,120,60.666666666666664,120,66.5C120,72.33333333333333,120,78.16666666666667,120,81.08333333333333L120,84" marker-end="url(#arrowhead)" fill="none"/></g></g></g><g class="branchInsertArea" data-insertion-index="1" data-parent-state-id="Bedrock Analysis" id="Bedrock Analysis:1" x="240" y="0" width="20" height="100"><rect x="240" y="0" width="20" height="100" stroke="none" fill="none"/><path d="M250,0 l0,100" stroke="none" fill="none"/></g></g><g class="branch" transform="translate(280,89)"><g transform=""><g class="nodes"><g class="node-container" transform="translate(120,24.5)"><g class="sc-gFqAkR koPDWw node state Task" data-testid="graph-DetectTopics" data-state-id="DetectTopics" data-state-type="Task"><g class="new-look-state-node "><rect x="-120" y="-24.5" width="240" height="49" rx="3" ry="3"/><g class="handle" transform="translate(-120,-24.5)"><path d="M5,16 L5,34 M8,16 L8,34"/></g><g class="icon" transform="translate(-104,-24)"><rect fill="var(--color-background-container-header-9ekpze, #fafafa)" x="0.0361026108" y="0.0181291967" width="48" height="48"/><line x1="47.5" y1="0.49122807" x2="47.5" y2="47.5" stroke="var(--color-board-placeholder-active-e71qda, #d5dbdb)" stroke-linecap="square"/><line x1="0.5" y1="0.49122807" x2="0.5" y2="47.5" stroke="var(--color-board-placeholder-active-e71qda, #d5dbdb)" stroke-linecap="square"/><use href="#icon-service-amazonbedrock" aria-hidden="true"><title>Amazon Bedrock</title></use></g><g class="text-lines" transform="translate(-48,-24.5)"><text transform="translate(0,17)" class="line1"><tspan xml:space="preserve" text-anchor="start">Bedrock: InvokeModel</tspan></text><text transform="translate(0,35.5)" class="line2 label"><tspan xml:space="preserve" text-anchor="start">DetectTopics</tspan></text></g></g></g></g><g class="node-container" transform="translate(120,92)"><g><circle class="sc-hknOHE hNvXgC shape" r="8"/></g></g></g><g class="edges"><g class="sc-ikkxIA gKodPg edge"><path id="state-DetectTopics:end:normal" d="M120,49L120,51.916666666666664C120,54.833333333333336,120,60.666666666666664,120,66.5C120,72.33333333333333,120,78.16666666666667,120,81.08333333333333L120,84" marker-end="url(#arrowhead)" fill="none"/></g></g></g><g class="branchInsertArea" data-insertion-index="2" data-parent-state-id="Bedrock Analysis" id="Bedrock Analysis:2" x="240" y="0" width="20" height="100"><rect x="240" y="0" width="20" height="100" stroke="none" fill="none"/><path d="M250,0 l0,100" stroke="none" fill="none"/></g></g><g class="sc-ikkxIA gKodPg"><path id="Bedrock Analysis-Summarize" class="path starting-connection" d="M270,44L270,47.75C270,51.5,270,59,248.33333333333334,62.75C226.66666666666666,66.5,183.33333333333334,66.5,161.66666666666666,70.25C140,74,140,81.5,140,85.25L140,89" fill="none"/></g><g class="sc-ikkxIA gKodPg"><path id="Bedrock Analysis-DetectTopics" class="path starting-connection" d="M270,44L270,47.75C270,51.5,270,59,291.6666666666667,62.75C313.3333333333333,66.5,356.6666666666667,66.5,378.3333333333333,70.25C400,74,400,81.5,400,85.25L400,89" fill="none"/></g></g></g><g class="new-look-state-node "><rect x="-120" y="-107" width="240" height="49" rx="3" ry="3"/><g class="handle" transform="translate(-120,-107)"><path d="M5,16 L5,34 M8,16 L8,34"/></g><g class="icon" transform="translate(-104,-106.5)"><rect fill="var(--color-background-container-header-9ekpze, #fafafa)" x="0.0361026108" y="0.0181291967" width="48" height="48"/><line x1="47.5" y1="0.49122807" x2="47.5" y2="47.5" stroke="var(--color-board-placeholder-active-e71qda, #d5dbdb)" stroke-linecap="square"/><line x1="0.5" y1="0.49122807" x2="0.5" y2="47.5" stroke="var(--color-board-placeholder-active-e71qda, #d5dbdb)" stroke-linecap="square"/><use href="#icon-flow-parallel"/></g><g class="text-lines" transform="translate(-48,-107)"><text transform="translate(0,17)" class="line1"><tspan xml:space="preserve" text-anchor="start">Parallel state</tspan></text><text transform="translate(0,35.5)" class="line2 label"><tspan xml:space="preserve" text-anchor="start">Bedrock Analysis</tspan></text></g></g></g></g></g><g class="node-container" transform="translate(270,257)"><g><circle class="sc-hknOHE hNvXgC shape" r="8"/></g></g></g><g class="edges"><g class="sc-ikkxIA gKodPg edge"><path id="state-Bedrock Analysis:end:normal" d="M270,214L270,216.91666666666666C270,219.83333333333334,270,225.66666666666666,270,231.5C270,237.33333333333334,270,243.16666666666666,270,246.08333333333334L270,249" marker-end="url(#arrowhead)" fill="none"/></g></g></g><g class="branchInsertArea" data-insertion-index="1" data-parent-state-id="Analysis" id="Analysis:1" x="540" y="0" width="20" height="505"><rect x="540" y="0" width="20" height="505" stroke="none" fill="none"/><path d="M550,0 l0,505" stroke="none" fill="none"/></g></g><g class="branch" transform="translate(580,89)"><g transform=""><g class="nodes"><g class="node-container" transform="translate(295.5,227)"><g class="sc-gFqAkR koPDWw node state container Map" data-state-id="Process Chunks" data-state-type="Map"><g class="new-look-state-node "><g class="bounding-box" transform="translate(0,5)"><g class="shape new-look-state-node-sub"><rect rx="3" ry="3" x="-295.5" y="-227" width="591" height="449" class="sc-uVWWZ gKTErz"/><rect x="-105" y="-183" width="210" height="26" class="sc-uVWWZ sc-hCPjZK gKTErz pEUSh"/><svg x="-90" y="-186.5" width="25" height="25" viewBox="0 -8 25 25" xmlns="http://www.w3.org/2000/svg"><g id="Symbols" stroke="none" stroke-width="1" fill="none" fill-rule="evenodd" opacity="0.867687044"><g id="ONE-MAP---graph---inline-map" transform="translate(-55.000000, -217.000000)" fill="#687078" fill-rule="nonzero"><g id="Group-15" transform="translate(36.000000, 213.000000)"><g id="script" transform="translate(19.000000, 4.000000)"><path d="M11.60121,15.4462891 C12.5601274,15.4462891 13.2010167,15.2896753 13.5238779,14.9764478 C13.8467393,14.6632203 14.0081699,14.0388817 14.0081699,13.1034319 L14.0081699,12.7383526 C14.0081699,12.1034319 14.1135348,10.6632203 14.3242646,10.4177176 C14.5349944,10.172215 14.9129549,10.0494637 15.4581458,10.0494637 L15.8177397,10.0494637 L15.8177397,6.83676525 L15.4581458,6.83676525 C14.9129549,6.83676525 14.5349944,6.71507213 14.3242646,6.47168589 C14.1135348,6.22829964 14.0081699,4.7870298 14.0081699,4.14787636 L14.0081699,3.782797 C14.0081699,2.84734726 13.8467393,2.22406684 13.5238779,1.91295573 C13.2010167,1.60184462 12.5601274,1.44628906 11.60121,1.44628906 L9.8177397,1.44628906 L9.8177397,3.65263827 L10.519528,3.65263827 C10.9255213,3.65263827 11.1971501,3.74364356 11.3344144,3.92565414 C11.4716788,4.10766472 11.540311,5.49708271 11.540311,6.09390811 L11.540311,6.42089224 C11.540311,7.11930494 11.6340761,7.61031023 11.8216063,7.89390811 C12.0091365,8.17750599 12.3464975,8.35951658 12.8336895,8.43993986 C12.3503642,8.52882875 12.0139698,8.71718853 11.8245063,9.00501922 C11.6350428,9.29284991 11.540311,9.7838552 11.540311,10.4780351 L11.540311,10.7796224 C11.540311,11.3849134 11.4707122,12.7785642 11.3315144,12.9605748 C11.1923168,13.1425854 10.9216547,13.2335906 10.519528,13.2335906 L9.8177397,13.2335906 L9.8177397,15.4462891 L11.60121,15.4462891 Z" id="}"/><path d="M3.03295652,15.4462891 C3.99187387,15.4462891 4.63276319,15.2896753 4.95562448,14.9764478 C5.27848577,14.6632203 5.43991641,14.0388817 5.43991641,13.1034319 L5.43991641,12.7383526 C5.43991641,12.1034319 5.54528132,10.6632203 5.75601114,10.4177176 C5.96674096,10.172215 6.34470133,10.0494637 6.88989225,10.0494637 L7.24948625,10.0494637 L7.24948625,6.83676525 L6.88989225,6.83676525 C6.34470133,6.83676525 5.96674096,6.71507213 5.75601114,6.47168589 C5.54528132,6.22829964 5.43991641,4.7870298 5.43991641,4.14787636 L5.43991641,3.782797 C5.43991641,2.84734726 5.27848577,2.22406684 4.95562448,1.91295573 C4.63276319,1.60184462 3.99187387,1.44628906 3.03295652,1.44628906 L1.24948625,1.44628906 L1.24948625,3.65263827 L1.95127455,3.65263827 C2.35726778,3.65263827 2.62889659,3.74364356 2.76616097,3.92565414 C2.90342535,4.10766472 2.97205754,4.49708271 2.97205754,5.09390811 L2.97205754,5.42089224 C2.97205754,6.11930494 3.06582265,7.61031023 3.25335285,7.89390811 C3.44088306,8.17750599 3.7782441,8.35951658 4.26543598,8.43993986 C3.7821107,8.52882875 3.44571631,8.71718853 3.25625281,9.00501922 C3.0667893,9.29284991 2.97205754,9.7838552 2.97205754,10.4780351 L2.97205754,10.7796224 C2.97205754,11.3849134 2.9024587,12.7785642 2.76326102,12.9605748 C2.62406334,13.1425854 2.35340119,13.2335906 1.95127455,13.2335906 L1.24948625,13.2335906 L1.24948625,15.4462891 L3.03295652,15.4462891 Z" id="}-copy" transform="translate(4.249486, 8.446289) scale(-1, 1) translate(-4.249486, -8.446289) "/></g></g></g></g><style data-styled="true" data-styled-version="5.3.11">.koPDWw{cursor:pointer;}/*!sc*/
data-styled.g23[id="sc-gFqAkR"]{content:"koPDWw,"}/*!sc*/
.gKodPg{stroke:#555;background-color:#555;stroke-width:1px;}/*!sc*/
data-styled.g24[id="sc-ikkxIA"]{content:"gKodPg,"}/*!sc*/
.kqgfFu{stroke-width:0;stroke:none;fill:#f2f3f3;}/*!sc*/
data-styled.g25[id="sc-dAbbOL"]{content:"kqgfFu,"}/*!sc*/
.dXGycB{font-size:10px;line-height:12.5;stroke:none;}/*!sc*/
data-styled.g26[id="sc-feUZmu"]{content:"dXGycB,"}/*!sc*/
.ewVTGU{fill:var(--color-text-form-secondary-smwr7a,#687078);}/*!sc*/
data-styled.g52[id="sc-fjvvzt"]{content:"ewVTGU,"}/*!sc*/
.hTlXKS{font-weight:400;font-size:12px;line-height:16px;font-family:Amazon Ember,Arial,Roboto,Arial,sans-serif;text-shadow:none;fill:var(--color-text-button-primary-default-h1el7o,#16191f);}/*!sc*/
data-styled.g53[id="sc-bbSZdi"]{content:"hTlXKS,"}/*!sc*/
.eHdOCr{fill:#fff9cc;stroke:var(--color-text-form-secondary-smwr7a,#687078);stroke-width:0.6px;}/*!sc*/
data-styled.g54[id="sc-fBWQRz"]{content:"eHdOCr,"}/*!sc*/
.hNvXgC{fill:#fff9cc;stroke:var(--color-text-form-secondary-smwr7a,#687078);stroke-width:0.6px;}/*!sc*/
data-styled.g55[id="sc-hknOHE"]{content:"hNvXgC,"}/*!sc*/
.gKTErz{stroke:var(--color-border-control-default-9558cz,#687078);stroke-width:1px;fill:var(--color-background-container-content-yrbxur,#ffffff);opacity:0.5;}/*!sc*/
.node &gt; .new-look-state-node.has-errors &gt; .bounding-box &gt; .sc-uVWWZ{stroke:var(--color-border-status-error-japsx0,#d13212);fill:var(--color-background-status-error-wgh5bg,#fdf3f1);}/*!sc*/
.selected &gt; .node &gt; .new-look-state-node &gt; .bounding-box &gt; .sc-uVWWZ{stroke:var(--color-border-status-info-g4ewkk,#0073bb);fill:var(--color-background-status-info-79eqx5,#f1faff);}/*!sc*/
.selected &gt; .node &gt; .new-look-state-node.has-errors &gt; .bounding-box &gt; .sc-uVWWZ{stroke:var(--color-border-status-error-japsx0,#d13212);fill:#fde0da;}/*!sc*/
data-styled.g56[id="sc-uVWWZ"]{content:"gKTErz,"}/*!sc*/
.pEUSh{opacity:1;}/*!sc*/
data-styled.g57[id="sc-hCPjZK"]{content:"pEUSh,"}/*!sc*/
</style><style>
.new-look-state-node &gt; rect:first-of-type {
  stroke: #687078;
  stroke-width: 1px;
  fill: #413f44;
}

.new-look-state-node .error-icon circle {
 stroke-linejoin: round;
}

.new-look-state-node .error-icon circle, .new-look-state-node .error-icon path {
 stroke: var(--color-border-status-error-japsx0, #d13212);
 fill: none;
 stroke-width: 2px;
}

.new-look-state-node.has-errors &gt; rect:first-of-type {
 stroke: var(--color-border-status-error-japsx0, #d13212);
 fill: #671c00;
}

.new-look-state-node.has-errors &gt; .bounding-box &gt; .new-look-state-node-sub &gt; rect {
  stroke: var(--color-border-status-error-japsx0, #d13212);
  fill: var(--color-background-status-error-wgh5bg, #fdf3f1);
}

.new-look-state-node .handle path {
  stroke: var(--color-border-dropdown-item-hover-38gqzc, #879596);
  stroke-width: 1px;
  fill: none;
}

.new-look-state-node {
  font-weight: 400;
  font-family: Amazon Ember, Arial, Roboto, Arial, sans-serif;
  text-shadow: none;
}

.new-look-state-node .line1 {
  fill: #B9B9B9;
  font-size: 12px;
}

.new-look-state-node .line2 {
  fill: #F5F5DC;
}

.selected.node &gt; .new-look-state-node &gt; rect,
.selected.node &gt; .new-look-state-node &gt; .new-look-state-node &gt; rect,
.selected.node &gt; .new-look-state-node &gt; .bounding-box &gt; rect,
.selected.node &gt; .new-look-state-node.has-errors &gt; rect,
.selected.node &gt; .new-look-state-node.has-errors &gt; .bounding-box &gt; rect,
.selected.node &gt; .new-look-state-node.has-errors &gt; .new-look-state-node &gt; rect,
.selected.node &gt; .new-look-state-node &gt; .bounding-box &gt; .new-look-state-node-sub &gt; rect
 {
  stroke: var(--color-border-status-info-g4ewkk, #0073bb);
  fill: #00366d;
  stroke-width: 1px;
}

.new-look-state-node-sub .item-source.not-specified {
  height: 15px;
  color: #687078;
  font-family: "Amazon Ember";
  font-size: 12px;
  letter-spacing: 0;
  line-height: 16px;
  font-weight: 400;
}
.new-look-state-node-sub .item-source .item-source_name{
  font-weight: 600;
}
.new-look-state-node-sub .item-source.not-specified .item-source_name{
  font-weight: 400;
}

.new-look-state-node-sub .item-source.not-specified {
  font-style: italic;
}

.new-look-state-node-sub &gt; rect,
.new-look-state-node &gt; .bounding-box &gt; rect {
  stroke: var(--color-border-control-default-9558cz, #687078);
  fill: #2a2e33;
}

.new-look-graph .drag-source {
  opacity: 0.2;
}

.new-look-graph .edge, .new-look-graph path.starting-connection {
  stroke-width: 1px;
  stroke: var(--color-text-form-secondary-smwr7a, #687078);
  marker-end: url(#large-arrowhead);
}

.new-look-graph .edge-label {
  cursor: pointer;
}

.new-look-graph .edge-label rect {
  stroke-width: 1px;
  stroke: var(--color-border-control-default-9558cz, #687078);
  fill: #21252c;
}

.new-look-graph .edge-label.selected rect {
  stroke: var(--color-border-status-info-g4ewkk, #0073bb);
  fill: var(--color-background-status-info-79eqx5, #f1faff);
  stroke-width: 0.6px;
}



.new-look-graph .edge-label .label {
  fill: var(--color-text-form-secondary-smwr7a, #687078);
  font-family: Amazon Ember, Arial, Roboto, Arial, sans-serif;
}

/* centering the shape text */
@-moz-document url-prefix() {
  .new-look-graph .shape + text,
  .new-look-graph .edge-label text {
    transform: translateY(3.5px);
  }
}

.new-look-graph .edge path {
  marker-end: url(#large-arrowhead) !important;
}

.new-look-graph .edge.selected path{
  stroke: var(--color-border-status-info-g4ewkk, #0073bb);
  stroke-width: 1.1px;
}

.new-look-graph .edge.dragging-over path, .new-look-graph  g.dragging-over .starting-connection {
  stroke: #24439E;
  stroke-width: 2px;
}

.new-look-graph .edge.dragging-over path, .new-look-graph .dragging-over path.starting-connection {
  marker-end: url(#large-highlighted-arrowhead) !important;
}

.new-look-graph .edge.dragging-over .edge-label text {
  fill: #24439E;
}

#large-highlighted-arrowhead {
  fill: #24439E;
}

#large-highlighted-arrowhead path {
  stroke: none;
}

.new-look-graph .edge.drop-not-supported path, g.drop-not-supported .starting-connection {
  stroke: red;
}

.new-look-graph .edge.drop-not-supported .edge-label text {
  fill: red;
}

.new-look-graph .edge.drop-not-supported path {
  marker-end: url(#large-error-arrowhead) !important;
}

#large-error-arrowhead {
  fill: red;
}

.node-container * &gt; .icon  {
  &gt; rect {
    fill: #21252c;
  }
  &gt; line {
    stroke: #687078;
  }
}


.node.Placeholder.dragging-over rect {
  stroke: var(--color-border-status-info-g4ewkk, #0073bb);
  fill: var(--color-background-status-info-79eqx5, #f1faff);
  stroke-width: 2px;
}

.node.Placeholder.dragging-over .label {
  fill: var(--color-text-status-info-7871xj, #0073bb);
}

g.Placeholder rect {
  stroke-dasharray: 5 4;
  stroke: var(--color-border-dropdown-item-hover-38gqzc, #879596);
  fill: #1a2029;
  stroke-width: 1px;
}

g.Placeholder .label {
  font-style: italic;
  fill: var(--color-text-input-placeholder-zd3pu1, #687078);
}

.node.Placeholder.drop-not-supported rect {
  stroke: red;
}

.node.Placeholder.drop-not-supported .label {
  fill: red;
}
</style><style>.line2 { font-size: 14px }</style></svg><text x="-65" y="-166" class="line1"><tspan class="item-source" xml:space="preserve" text-anchor="start"><tspan>Item source</tspan><tspan class="item-source_name"><tspan>: JSON Payload</tspan></tspan></tspan></text></g><g class="content" transform="translate(-295.5,-227)"><g class="branch" transform="translate(20,124)"><g transform=""><g class="nodes"><g class="node-container" transform="translate(275.5,107)"><g class="sc-gFqAkR koPDWw node state container Parallel" data-testid="graph-Analyze Chunk" data-state-id="Analyze Chunk" data-state-type="Parallel"><g class="new-look-state-node "><g class="bounding-box" transform="translate(0,5)"><rect class="sc-uVWWZ gKTErz shape" rx="7" ry="7" x="-275.5" y="-107" width="551" height="209"/><g class="content" transform="translate(-275.5,-107)"><g class="branch" transform="translate(20,89)"><g class="branchInsertArea" data-insertion-index="0" data-parent-state-id="Analyze Chunk" id="Analyze Chunk:0" x="-20" y="0" width="20" height="100"><rect x="-20" y="0" width="20" height="100" stroke="none" fill="none"/><path d="M-10,0 l0,100" stroke="none" fill="none"/></g><g transform=""><g class="nodes"><g class="node-container" transform="translate(120,24.5)"><g class="sc-gFqAkR koPDWw node state Task" data-testid="graph-DetectEntities" data-state-id="DetectEntities" data-state-type="Task"><g class="new-look-state-node "><rect x="-120" y="-24.5" width="240" height="49" rx="3" ry="3"/><g class="handle" transform="translate(-120,-24.5)"><path d="M5,16 L5,34 M8,16 L8,34"/></g><g class="icon" transform="translate(-104,-24)"><rect fill="var(--color-background-container-header-9ekpze, #fafafa)" x="0.0361026108" y="0.0181291967" width="48" height="48"/><line x1="47.5" y1="0.49122807" x2="47.5" y2="47.5" stroke="var(--color-board-placeholder-active-e71qda, #d5dbdb)" stroke-linecap="square"/><line x1="0.5" y1="0.49122807" x2="0.5" y2="47.5" stroke="var(--color-board-placeholder-active-e71qda, #d5dbdb)" stroke-linecap="square"/><use href="#icon-service-comprehend" aria-hidden="true"><title>Amazon Comprehend</title></use></g><g class="text-lines" transform="translate(-48,-24.5)"><text transform="translate(0,17)" class="line1"><tspan xml:space="preserve" text-anchor="start">Comprehend: DetectEntities</tspan></text><text transform="translate(0,35.5)" class="line2 label"><tspan xml:space="preserve" text-anchor="start">DetectEntities</tspan></text></g></g></g></g><g class="node-container" transform="translate(120,92)"><g><circle class="sc-hknOHE hNvXgC shape" r="8"/></g></g></g><g class="edges"><g class="sc-ikkxIA gKodPg edge"><path id="state-DetectEntities:end:normal" d="M120,49L120,51.916666666666664C120,54.833333333333336,120,60.666666666666664,120,66.5C120,72.33333333333333,120,78.16666666666667,120,81.08333333333333L120,84" marker-end="url(#arrowhead)" fill="none"/></g></g></g><g class="branchInsertArea" data-insertion-index="1" data-parent-state-id="Analyze Chunk" id="Analyze Chunk:1" x="240" y="0" width="20" height="100"><rect x="240" y="0" width="20" height="100" stroke="none" fill="none"/><path d="M250,0 l0,100" stroke="none" fill="none"/></g></g><g class="branch" transform="translate(280,89)"><g transform=""><g class="nodes"><g class="node-container" transform="translate(125.5,24.5)"><g class="sc-gFqAkR koPDWw node state Task" data-testid="graph-DetectSentiment" data-state-id="DetectSentiment" data-state-type="Task"><g class="new-look-state-node "><rect x="-125.5" y="-24.5" width="251" height="49" rx="3" ry="3"/><g class="handle" transform="translate(-125.5,-24.5)"><path d="M5,16 L5,34 M8,16 L8,34"/></g><g class="icon" transform="translate(-109.5,-24)"><rect fill="var(--color-background-container-header-9ekpze, #fafafa)" x="0.0361026108" y="0.0181291967" width="48" height="48"/><line x1="47.5" y1="0.49122807" x2="47.5" y2="47.5" stroke="var(--color-board-placeholder-active-e71qda, #d5dbdb)" stroke-linecap="square"/><line x1="0.5" y1="0.49122807" x2="0.5" y2="47.5" stroke="var(--color-board-placeholder-active-e71qda, #d5dbdb)" stroke-linecap="square"/><use href="#icon-service-comprehend" aria-hidden="true"><title>Amazon Comprehend</title></use></g><g class="text-lines" transform="translate(-53.5,-24.5)"><text transform="translate(0,17)" class="line1"><tspan xml:space="preserve" text-anchor="start">Comprehend: DetectSentiment</tspan></text><text transform="translate(0,35.5)" class="line2 label"><tspan xml:space="preserve" text-anchor="start">DetectSentiment</tspan></text></g></g></g></g><g class="node-container" transform="translate(125.5,92)"><g><circle class="sc-hknOHE hNvXgC shape" r="8"/></g></g></g><g class="edges"><g class="sc-ikkxIA gKodPg edge"><path id="state-DetectSentiment:end:normal" d="M125.5,49L125.5,51.916666666666664C125.5,54.833333333333336,125.5,60.666666666666664,125.5,66.5C125.5,72.33333333333333,125.5,78.16666666666667,125.5,81.08333333333333L125.5,84" marker-end="url(#arrowhead)" fill="none"/></g></g></g><g class="branchInsertArea" data-insertion-index="2" data-parent-state-id="Analyze Chunk" id="Analyze Chunk:2" x="251" y="0" width="20" height="100"><rect x="251" y="0" width="20" height="100" stroke="none" fill="none"/><path d="M261,0 l0,100" stroke="none" fill="none"/></g></g><g class="sc-ikkxIA gKodPg"><path id="Analyze Chunk-DetectEntities" class="path starting-connection" d="M275.5,44L275.5,47.75C275.5,51.5,275.5,59,252.91666666666666,62.75C230.33333333333334,66.5,185.16666666666666,66.5,162.58333333333334,70.25C140,74,140,81.5,140,85.25L140,89" fill="none"/></g><g class="sc-ikkxIA gKodPg"><path id="Analyze Chunk-DetectSentiment" class="path starting-connection" d="M275.5,44L275.5,47.75C275.5,51.5,275.5,59,297.1666666666667,62.75C318.8333333333333,66.5,362.1666666666667,66.5,383.8333333333333,70.25C405.5,74,405.5,81.5,405.5,85.25L405.5,89" fill="none"/></g></g></g><g class="new-look-state-node "><rect x="-120" y="-107" width="240" height="49" rx="3" ry="3"/><g class="handle" transform="translate(-120,-107)"><path d="M5,16 L5,34 M8,16 L8,34"/></g><g class="icon" transform="translate(-104,-106.5)"><rect fill="var(--color-background-container-header-9ekpze, #fafafa)" x="0.0361026108" y="0.0181291967" width="48" height="48"/><line x1="47.5" y1="0.49122807" x2="47.5" y2="47.5" stroke="var(--color-board-placeholder-active-e71qda, #d5dbdb)" stroke-linecap="square"/><line x1="0.5" y1="0.49122807" x2="0.5" y2="47.5" stroke="var(--color-board-placeholder-active-e71qda, #d5dbdb)" stroke-linecap="square"/><use href="#icon-flow-parallel"/></g><g class="text-lines" transform="translate(-48,-107)"><text transform="translate(0,17)" class="line1"><tspan xml:space="preserve" text-anchor="start">Parallel state</tspan></text><text transform="translate(0,35.5)" class="line2 label"><tspan xml:space="preserve" text-anchor="start">Analyze Chunk</tspan></text></g></g></g></g></g><g class="node-container" transform="translate(275.5,257)"><g><circle class="sc-hknOHE hNvXgC shape" r="8"/></g></g></g><g class="edges"><g class="sc-ikkxIA gKodPg edge"><path id="state-Analyze Chunk:end:normal" d="M275.5,214L275.5,216.91666666666666C275.5,219.83333333333334,275.5,225.66666666666666,275.5,231.5C275.5,237.33333333333334,275.5,243.16666666666666,275.5,246.08333333333334L275.5,249" marker-end="url(#arrowhead)" fill="none"/></g></g></g></g><g class="sc-ikkxIA gKodPg"><path id="Process Chunks-Analyze Chunk" class="path starting-connection" d="M295.5,69L295.5,73.58333333333333C295.5,78.16666666666667,295.5,87.33333333333333,295.5,91.91666666666667C295.5,96.5,295.5,96.5,295.5,101.08333333333333C295.5,105.66666666666667,295.5,114.83333333333333,295.5,119.41666666666667L295.5,124" fill="none"/></g></g></g><g class="new-look-state-node "><rect x="-120" y="-227" width="240" height="49" rx="3" ry="3"/><g class="handle" transform="translate(-120,-227)"><path d="M5,16 L5,34 M8,16 L8,34"/></g><g class="icon" transform="translate(-104,-226.5)"><rect fill="var(--color-background-container-header-9ekpze, #fafafa)" x="0.0361026108" y="0.0181291967" width="48" height="48"/><line x1="47.5" y1="0.49122807" x2="47.5" y2="47.5" stroke="var(--color-board-placeholder-active-e71qda, #d5dbdb)" stroke-linecap="square"/><line x1="0.5" y1="0.49122807" x2="0.5" y2="47.5" stroke="var(--color-board-placeholder-active-e71qda, #d5dbdb)" stroke-linecap="square"/><use href="#icon-flow-map"/></g><g class="text-lines" transform="translate(-48,-227)"><text transform="translate(0,17)" class="line1"><tspan xml:space="preserve" text-anchor="start">Map state</tspan></text><text transform="translate(0,35.5)" class="line2 label"><tspan xml:space="preserve" text-anchor="start">Process Chunks</tspan></text></g></g></g></g></g><g class="node-container" transform="translate(295.5,497)"><g><circle class="sc-hknOHE hNvXgC shape" r="8"/></g></g></g><g class="edges"><g class="sc-ikkxIA gKodPg edge"><path id="state-Process Chunks:end:normal" d="M295.5,454L295.5,456.9166666666667C295.5,459.8333333333333,295.5,465.6666666666667,295.5,471.5C295.5,477.3333333333333,295.5,483.1666666666667,295.5,486.0833333333333L295.5,489" marker-end="url(#arrowhead)" fill="none"/></g></g></g><g class="branchInsertArea" data-insertion-index="2" data-parent-state-id="Analysis" id="Analysis:2" x="591" y="0" width="20" height="505"><rect x="591" y="0" width="20" height="505" stroke="none" fill="none"/><path d="M601,0 l0,505" stroke="none" fill="none"/></g></g><g class="sc-ikkxIA gKodPg"><path id="Analysis-Bedrock Analysis" class="path starting-connection" d="M595.5,44L595.5,47.75C595.5,51.5,595.5,59,544.5833333333334,62.75C493.6666666666667,66.5,391.8333333333333,66.5,340.9166666666667,70.25C290,74,290,81.5,290,85.25L290,89" fill="none"/></g><g class="sc-ikkxIA gKodPg"><path id="Analysis-Process Chunks" class="path starting-connection" d="M595.5,44L595.5,47.75C595.5,51.5,595.5,59,642.1666666666666,62.75C688.8333333333334,66.5,782.1666666666666,66.5,828.8333333333334,70.25C875.5,74,875.5,81.5,875.5,85.25L875.5,89" fill="none"/></g></g></g><g class="new-look-state-node "><rect x="-120" y="-309.5" width="240" height="49" rx="3" ry="3"/><g class="handle" transform="translate(-120,-309.5)"><path d="M5,16 L5,34 M8,16 L8,34"/></g><g class="icon" transform="translate(-104,-309)"><rect fill="var(--color-background-container-header-9ekpze, #fafafa)" x="0.0361026108" y="0.0181291967" width="48" height="48"/><line x1="47.5" y1="0.49122807" x2="47.5" y2="47.5" stroke="var(--color-board-placeholder-active-e71qda, #d5dbdb)" stroke-linecap="square"/><line x1="0.5" y1="0.49122807" x2="0.5" y2="47.5" stroke="var(--color-board-placeholder-active-e71qda, #d5dbdb)" stroke-linecap="square"/><use href="#icon-flow-parallel"/></g><g class="text-lines" transform="translate(-48,-309.5)"><text transform="translate(0,17)" class="line1"><tspan xml:space="preserve" text-anchor="start">Parallel state</tspan></text><text transform="translate(0,35.5)" class="line2 label"><tspan xml:space="preserve" text-anchor="start">Analysis</tspan></text></g></g></g></g></g><g class="node-container" transform="translate(595.5,1311)"><g class="sc-gFqAkR koPDWw node state Pass" data-testid="graph-Prepare Analysis Results" data-state-id="Prepare Analysis Results" data-state-type="Pass"><g class="new-look-state-node "><rect x="-120" y="-24.5" width="240" height="49" rx="3" ry="3"/><g class="handle" transform="translate(-120,-24.5)"><path d="M5,16 L5,34 M8,16 L8,34"/></g><g class="icon" transform="translate(-104,-24)"><rect fill="var(--color-background-container-header-9ekpze, #fafafa)" x="0.0361026108" y="0.0181291967" width="48" height="48"/><line x1="47.5" y1="0.49122807" x2="47.5" y2="47.5" stroke="var(--color-board-placeholder-active-e71qda, #d5dbdb)" stroke-linecap="square"/><line x1="0.5" y1="0.49122807" x2="0.5" y2="47.5" stroke="var(--color-board-placeholder-active-e71qda, #d5dbdb)" stroke-linecap="square"/><use href="#icon-flow-pass"/></g><g class="text-lines" transform="translate(-48,-24.5)"><text transform="translate(0,17)" class="line1"><tspan xml:space="preserve" text-anchor="start">Pass state</tspan></text><text transform="translate(0,35.5)" class="line2 label"><tspan xml:space="preserve" text-anchor="start">Prepare Analysis Results</tspan></text></g></g></g></g><g class="node-container" transform="translate(595.5,1395)"><g class="sc-gFqAkR koPDWw node state Task" data-testid="graph-Compile Analysis" data-state-id="Compile Analysis" data-state-type="Task"><g class="new-look-state-node "><rect x="-120" y="-24.5" width="240" height="49" rx="3" ry="3"/><g class="handle" transform="translate(-120,-24.5)"><path d="M5,16 L5,34 M8,16 L8,34"/></g><g class="icon" transform="translate(-104,-24)"><rect fill="var(--color-background-container-header-9ekpze, #fafafa)" x="0.0361026108" y="0.0181291967" width="48" height="48"/><line x1="47.5" y1="0.49122807" x2="47.5" y2="47.5" stroke="var(--color-board-placeholder-active-e71qda, #d5dbdb)" stroke-linecap="square"/><line x1="0.5" y1="0.49122807" x2="0.5" y2="47.5" stroke="var(--color-board-placeholder-active-e71qda, #d5dbdb)" stroke-linecap="square"/><use href="#icon-service-lam" aria-hidden="true"><title>Lambda</title></use></g><g class="text-lines" transform="translate(-48,-24.5)"><text transform="translate(0,17)" class="line1"><tspan xml:space="preserve" text-anchor="start">Lambda: Invoke</tspan></text><text transform="translate(0,35.5)" class="line2 label"><tspan xml:space="preserve" text-anchor="start">Compile Analysis</tspan></text></g></g></g></g><g class="node-container" transform="translate(595.5,1479)"><g class="sc-gFqAkR koPDWw node state Task" data-testid="graph-Write Report" data-state-id="Write Report" data-state-type="Task"><g class="new-look-state-node "><rect x="-120" y="-24.5" width="240" height="49" rx="3" ry="3"/><g class="handle" transform="translate(-120,-24.5)"><path d="M5,16 L5,34 M8,16 L8,34"/></g><g class="icon" transform="translate(-104,-24)"><rect fill="var(--color-background-container-header-9ekpze, #fafafa)" x="0.0361026108" y="0.0181291967" width="48" height="48"/><line x1="47.5" y1="0.49122807" x2="47.5" y2="47.5" stroke="var(--color-board-placeholder-active-e71qda, #d5dbdb)" stroke-linecap="square"/><line x1="0.5" y1="0.49122807" x2="0.5" y2="47.5" stroke="var(--color-board-placeholder-active-e71qda, #d5dbdb)" stroke-linecap="square"/><use href="#icon-service-s3" aria-hidden="true"><title>S3</title></use></g><g class="text-lines" transform="translate(-48,-24.5)"><text transform="translate(0,17)" class="line1"><tspan xml:space="preserve" text-anchor="start">S3: PutObject</tspan></text><text transform="translate(0,35.5)" class="line2 label"><tspan xml:space="preserve" text-anchor="start">Write Report</tspan></text></g></g></g></g><g class="node-container" transform="translate(910.75,1560.5)"><g><circle class="sc-fBWQRz eHdOCr shape" r="22"/><text class="sc-bbSZdi hTlXKS label"><tspan xml:space="preserve" text-anchor="middle" alignment-baseline="central">End</tspan></text></g></g></g><g class="edges"><g class="sc-ikkxIA gKodPg edge"><path id="state-ValidateInput:state-StartTranscriptionJob:choiceRule:0" d="M655.7114427860697,128L645.6762023217248,132.29166666666666C635.6409618573798,136.58333333333334,615.5704809286899,145.16666666666666,605.535240464345,153.75C595.5,162.33333333333334,595.5,170.91666666666666,595.5,175.20833333333334L595.5,179.5" marker-end="url(#arrowhead)" fill="none"/><g data-testid="graph-ValidateInput-0" class="edge-label" transform="translate(605.535240464345,153.75)"><rect x="-102.5" y="-8.25" width="205" height="16.5" class="sc-dAbbOL kqgfFu"/><text class="sc-feUZmu dXGycB label"><tspan xml:space="preserve" text-anchor="middle" alignment-baseline="central">$.bucket is present and $.key is present a…</tspan><title>$.bucket is present and $.key is present and $.languageCode is present</title></text></g></g><g class="sc-ikkxIA gKodPg edge"><path id="state-ValidateInput:state-Fail:choiceDefault" d="M833,122.62767644726408L865.5416666666666,127.81473037272006C898.0833333333334,133.00178429817606,963.1666666666666,143.37589214908803,995.7083333333334,156.93794607454402C1028.25,170.5,1028.25,187.25,1028.25,202.625C1028.25,218,1028.25,232,1028.25,246C1028.25,260,1028.25,274,1028.25,289.375C1028.25,304.75,1028.25,321.5,1028.25,338.25C1028.25,355,1028.25,371.75,1028.25,387.125C1028.25,402.5,1028.25,416.5,1028.25,430.5C1028.25,444.5,1028.25,458.5,1028.25,473.875C1028.25,489.25,1028.25,506,1045.139096185738,518.6666666666666C1062.0281923714758,531.3333333333334,1095.8063847429519,539.9166666666666,1112.69548092869,544.2083333333334L1129.584577114428,548.5" marker-end="url(#arrowhead)" fill="none"/><g data-testid="graph-ValidateInput-Default" class="edge-label" transform="translate(995.7083333333334,156.93794607454402)"><rect x="-22" y="-8.25" width="44" height="16.5" class="sc-dAbbOL kqgfFu"/><text class="sc-feUZmu dXGycB label"><tspan xml:space="preserve" text-anchor="middle" alignment-baseline="central">Default</tspan><title>Default</title></text></g></g><g class="sc-ikkxIA gKodPg edge"><path id="start:state-ValidateInput" d="M713,44L713,46.916666666666664C713,49.833333333333336,713,55.666666666666664,713,61.5C713,67.33333333333333,713,73.16666666666667,713,76.08333333333333L713,79" marker-end="url(#arrowhead)" fill="none"/></g><g class="sc-ikkxIA gKodPg edge"><path id="state-StartTranscriptionJob:state-Wait 30 Seconds:normal" d="M595.5,228.5L595.5,231.41666666666666C595.5,234.33333333333334,595.5,240.16666666666666,595.5,246C595.5,251.83333333333334,595.5,257.6666666666667,595.5,260.5833333333333L595.5,263.5" marker-end="url(#arrowhead)" fill="none"/></g><g class="sc-ikkxIA gKodPg edge"><path id="state-Wait 30 Seconds:state-GetTranscriptionJob:normal" d="M556.0074626865671,312.5L549.0895522388059,316.7916666666667C542.1716417910447,321.0833333333333,528.3358208955224,329.6666666666667,521.4179104477612,338.25C514.5,346.8333333333333,514.5,355.4166666666667,514.5,359.7083333333333L514.5,364" marker-end="url(#arrowhead)" fill="none"/></g><g class="sc-ikkxIA gKodPg edge"><path id="state-GetTranscriptionJob:state-Job Complete?:normal" d="M514.5,413L514.5,415.9166666666667C514.5,418.8333333333333,514.5,424.6666666666667,520.125,430.5C525.75,436.3333333333333,537,442.1666666666667,542.625,445.0833333333333L548.25,448" marker-end="url(#arrowhead)" fill="none"/></g><g class="sc-ikkxIA gKodPg edge"><path id="state-Job Complete?:state-Fail:choiceRule:0" d="M715.5,481.8415956622773L803.0833333333334,488.6596630518978C890.6666666666666,495.4777304415182,1065.8333333333333,509.1138652207591,1152.1355721393036,520.2235992770462C1238.4378109452737,531.3333333333334,1235.8756218905473,539.9166666666666,1234.5945273631842,544.2083333333334L1233.313432835821,548.5" marker-end="url(#arrowhead)" fill="none"/><g data-testid="graph-Job Complete?-0" class="edge-label" transform="translate(1152.1355721393036,520.2235992770462)"><rect x="-103" y="-8.25" width="206" height="16.5" class="sc-dAbbOL kqgfFu"/><text class="sc-feUZmu dXGycB label"><tspan xml:space="preserve" text-anchor="middle" alignment-baseline="central">$.getTranscriptionResult.status == "FAILE…</tspan><title>$.getTranscriptionResult.status == "FAILED"</title></text></g></g><g class="sc-ikkxIA gKodPg edge"><path id="state-Job Complete?:state-Extract Transcript:choiceRule:1" d="M595.5,497L595.5,501.2916666666667C595.5,505.5833333333333,595.5,514.1666666666666,595.5,522.75C595.5,531.3333333333334,595.5,539.9166666666666,595.5,544.2083333333334L595.5,548.5" marker-end="url(#arrowhead)" fill="none"/><g data-testid="graph-Job Complete?-1" class="edge-label" transform="translate(595.5,522.75)"><rect x="-101.5" y="-8.25" width="203" height="16.5" class="sc-dAbbOL kqgfFu"/><text class="sc-feUZmu dXGycB label"><tspan xml:space="preserve" text-anchor="middle" alignment-baseline="central">$.getTranscriptionResult.status == "COM…</tspan><title>$.getTranscriptionResult.status == "COMPLETED"</title></text></g></g><g class="sc-ikkxIA gKodPg edge"><path id="state-Job Complete?:state-Wait 30 Seconds:choiceDefault" d="M715.5,454.3867924528302L741.875,450.4056603773585C768.25,446.42452830188677,821,438.4622641509434,847.375,427.48113207547175C873.75,416.5,873.75,402.5,873.75,387.125C873.75,371.75,873.75,355,847.375,341.86185983827494C821,328.7237196765498,768.25,319.1974393530997,741.875,314.43429919137463L715.5,309.6711590296496" marker-end="url(#arrowhead)" fill="none"/><g data-testid="graph-Job Complete?-Default" class="edge-label" transform="translate(847.375,427.48113207547175)"><rect x="-22" y="-8.25" width="44" height="16.5" class="sc-dAbbOL kqgfFu"/><text class="sc-feUZmu dXGycB label"><tspan xml:space="preserve" text-anchor="middle" alignment-baseline="central">Default</tspan><title>Default</title></text></g></g><g class="sc-ikkxIA gKodPg edge"><path id="state-Extract Transcript:state-Analysis:normal" d="M595.5,597.5L595.5,600.4166666666666C595.5,603.3333333333334,595.5,609.1666666666666,595.5,615C595.5,620.8333333333334,595.5,626.6666666666666,595.5,629.5833333333334L595.5,632.5" marker-end="url(#arrowhead)" fill="none"/></g><g class="sc-ikkxIA gKodPg edge"><path id="state-Analysis:state-Prepare Analysis Results:normal" d="M595.5,1251.5L595.5,1254.4166666666667C595.5,1257.3333333333333,595.5,1263.1666666666667,595.5,1269C595.5,1274.8333333333333,595.5,1280.6666666666667,595.5,1283.5833333333333L595.5,1286.5" marker-end="url(#arrowhead)" fill="none"/></g><g class="sc-ikkxIA gKodPg edge"><path id="state-Prepare Analysis Results:state-Compile Analysis:normal" d="M595.5,1335.5L595.5,1338.4166666666667C595.5,1341.3333333333333,595.5,1347.1666666666667,595.5,1353C595.5,1358.8333333333333,595.5,1364.6666666666667,595.5,1367.5833333333333L595.5,1370.5" marker-end="url(#arrowhead)" fill="none"/></g><g class="sc-ikkxIA gKodPg edge"><path id="state-Compile Analysis:state-Write Report:normal" d="M595.5,1419.5L595.5,1422.4166666666667C595.5,1425.3333333333333,595.5,1431.1666666666667,595.5,1437C595.5,1442.8333333333333,595.5,1448.6666666666667,595.5,1451.5833333333333L595.5,1454.5" marker-end="url(#arrowhead)" fill="none"/></g><g class="sc-ikkxIA gKodPg edge"><path id="state-Write Report:end:normal" d="M595.5,1503.5L595.5,1506.4166666666667C595.5,1509.3333333333333,595.5,1515.1666666666667,644.4034477704153,1524.2108073600784C693.3068955408304,1533.2549480534901,791.1137910816607,1545.5098961069805,840.0172388520759,1551.6373701337259L888.9206866224911,1557.7648441604708" marker-end="url(#arrowhead)" fill="none"/></g><g class="sc-ikkxIA gKodPg edge"><path id="state-Fail:end:normal" d="M1226,597.5L1226,600.4166666666666C1226,603.3333333333334,1226,609.1666666666666,1226,666.5833333333334C1226,724,1226,833,1226,942C1226,1051,1226,1160,1226,1221.5C1226,1283,1226,1297,1226,1311C1226,1325,1226,1339,1226,1353C1226,1367,1226,1381,1226,1395C1226,1409,1226,1423,1226,1437C1226,1451,1226,1465,1226,1479C1226,1493,1226,1507,1177.0965522295849,1520.1274740267452C1128.1931044591695,1533.2549480534901,1030.3862089183392,1545.5098961069805,981.4827611479241,1551.6373701337259L932.5793133775089,1557.7648441604708" marker-end="url(#arrowhead)" fill="none"/></g></g><defs><marker id="arrowhead" markerWidth="8" markerHeight="6" refX="7" refY="3" orient="auto" class="sc-fjvvzt ewVTGU"><polygon points="0 0, 8 3, 0 6"/></marker><marker id="highlighted-arrowhead" markerWidth="6" markerHeight="4" refX="5" refY="2" orient="auto" class="sc-fjvvzt ewVTGU"><polygon points="0 0, 6 2, 0 4"/></marker><marker id="error-arrowhead" markerWidth="6" markerHeight="4" refX="5" refY="2" orient="auto" class="sc-fjvvzt ewVTGU"><polygon points="0 0, 6 2, 0 4"/></marker><marker id="large-arrowhead" markerWidth="10" markerHeight="8" refX="9" refY="4" orient="auto" class="sc-fjvvzt ewVTGU"><polygon points="0 0, 10 4, 0 8"/></marker><marker id="large-highlighted-arrowhead" markerWidth="5.5" markerHeight="4" refX="4.5" refY="2" orient="auto" class="sc-fjvvzt ewVTGU"><polygon points="0 0, 5.5 2, 0 4"/></marker><marker id="large-error-arrowhead" markerWidth="10" markerHeight="8" refX="9" refY="4" orient="auto" class="sc-fjvvzt ewVTGU"><polygon points="0 0, 10 4, 0 8"/></marker><linearGradient x1="0%" y1="100%" x2="100%" y2="0%" id="gradient-orange"><stop stop-color="#C8511B" offset="0%"/><stop stop-color="#FF9900" offset="100%"/></linearGradient><linearGradient x1="0%" y1="100%" x2="100%" y2="0%" id="gradient-turquoise"><stop stop-color="#055F4E" offset="0%"/><stop stop-color="#56C0A7" offset="100%"/></linearGradient><linearGradient x1="0%" y1="100%" x2="100%" y2="0%" id="gradient-blue"><stop stop-color="#2E27AD" offset="0%"/><stop stop-color="#527FFF" offset="100%"/></linearGradient><linearGradient x1="0%" y1="100%" x2="100%" y2="0%" id="gradient-pink"><stop stop-color="#B0084D" offset="0%"/><stop stop-color="#FF4F8B" offset="100%"/></linearGradient><linearGradient x1="0%" y1="100%" x2="100%" y2="0%" id="gradient-red"><stop stop-color="#BD0816" offset="0%"/><stop stop-color="#FF5252" offset="100%"/></linearGradient><linearGradient x1="0%" y1="100%" x2="100%" y2="0%" id="gradient-green"><stop stop-color="#1B660F" offset="0%"/><stop stop-color="#6CAE3E" offset="100%"/></linearGradient><linearGradient x1="0%" y1="100%" x2="100%" y2="0%" id="gradient-purple"><stop stop-color="#4D27A8" offset="0%"/><stop stop-color="#A166FF" offset="100%"/></linearGradient><linearGradient x1="0%" y1="100%" x2="100%" y2="0%" id="gradient-grey"><stop stop-color="#DCDCDC" offset="0%"/><stop stop-color="#F6F5F7" offset="100%"/></linearGradient>,<linearGradient x1="0%" y1="100%" x2="100%" y2="0%" id="gradient-ag"><stop stop-color="#BC1356" offset="0%"/><stop stop-color="#F34482" offset="100%"/></linearGradient><linearGradient x1="0%" y1="100%" x2="100%" y2="0%" id="gradient-athena"><stop stop-color="#5930B5" offset="0%"/><stop stop-color="#945DF2" offset="100%"/></linearGradient><linearGradient x1="0%" y1="100%" x2="100%" y2="0%" id="gradient-emr"><stop stop-color="#5930B5" offset="0%"/><stop stop-color="#945DF2" offset="100%"/></linearGradient><linearGradient x1="0%" y1="100%" x2="100%" y2="0%" id="gradient-glue"><stop stop-color="#5930B5" offset="0%"/><stop stop-color="#945DF2" offset="100%"/></linearGradient><linearGradient x1="0%" y1="100%" x2="100%" y2="0%" id="gradient-sns"><stop stop-color="#BC1356" offset="0%"/><stop stop-color="#F34482" offset="100%"/></linearGradient><linearGradient x1="0%" y1="100%" x2="100%" y2="0%" id="gradient-states"><stop stop-color="#BC1356" offset="0%"/><stop stop-color="#F34482" offset="100%"/></linearGradient><linearGradient x1="0%" y1="100%" x2="100%" y2="0%" id="gradient-generic"><stop stop-color="#ccc" offset="0%"/><stop stop-color="#ddd" offset="100%"/></linearGradient><g stroke="none" stroke-width="1" fill="none" fill-rule="evenodd" id="icon-flow-pass"><g transform="translate(10.500000, 8.750000)" fill="#0073BB" fill-rule="nonzero"><path d="M13.8217363,31.2803301 L13.7368454,31.3532508 L13.7368454,31.3532508 L13.6534426,31.407053 L13.6534426,31.407053 L13.6052878,31.4313839 L13.6052878,31.4313839 L13.5081671,31.4681458 L13.5081671,31.4681458 L13.4513711,31.4828395 L13.4513711,31.4828395 L13.3846755,31.4942127 L13.3846755,31.4942127 L13.3412428,31.498357 L13.3412428,31.498357 L13.241495,31.498357 L13.241495,31.498357 L13.1802045,31.4917588 L13.1802045,31.4917588 L13.1314644,31.4828361 L13.1314644,31.4828361 L13.0652921,31.4652652 L12.9776235,31.4314294 L12.9776235,31.4314294 L12.9293782,31.4070608 L12.9293782,31.4070608 L12.8294824,31.3409596 L12.7610762,31.2803301 L12.7610762,31.2803301 L8.26107616,26.7803301 C7.96818295,26.4874369 7.96818295,26.0125631 8.26107616,25.7196699 C8.52734273,25.4534034 8.94400641,25.4291973 9.2376179,25.6470518 L9.32173634,25.7196699 L12.5814063,28.979 L12.581,19.7495522 L3.5,19.75 C1.6314366,19.75 0.104873551,18.2857224 0.00517886273,16.4420352 L0,16.25 L0,12.25 C0,10.3814366 1.4642776,8.85487355 3.3079648,8.75517886 L3.5,8.75 L11.686,8.74955216 L11.686,10.2495522 L3.5,10.25 C2.4456382,10.25 1.58183488,11.0658778 1.50548574,12.1007377 L1.5,12.25 L1.5,16.25 C1.5,17.3043618 2.31587779,18.1681651 3.35073766,18.2445143 L3.5,18.25 L22.5,18.25 C23.5543618,18.25 24.4181651,17.4341222 24.4945143,16.3992623 L24.5,16.25 L24.5,12.25 C24.5,11.1956382 23.6841222,10.3318349 22.6492623,10.2554857 L22.5,10.25 L15.686,10.2495522 L15.686,8.74955216 L22.5,8.75 C24.3685634,8.75 25.8951264,10.2142776 25.9948211,12.0579648 L26,12.25 L26,16.25 C26,18.1185634 24.5357224,19.6451264 22.6920352,19.7448211 L22.5,19.75 L14.081,19.7495522 L14.0814063,28.899 L17.2610762,25.7196699 L17.3451946,25.6470518 C17.6388061,25.4291973 18.0554698,25.4534034 18.3217363,25.7196699 C18.5880029,25.9859365 18.6122089,26.4026002 18.3943545,26.6962117 L18.3217363,26.7803301 L13.8217363,31.2803301 Z" fill="false"/><polygon points="14.0818291 0 14.0818291 14.5 12.5818291 14.5 12.5818291 0" fill="false"/></g></g><g stroke-width="1" fill="none" fill-rule="evenodd" id="icon-flow-wait"><path d="M26.75,8.85825893 L26.75,10.3582589 L25,10.3582589 L25.0010332,13.2887186 C27.2395643,13.4625704 29.3159269,14.2145278 31.0809903,15.3954598 L32.3188424,13.6912711 L34.7458934,15.4546269 L33.3682881,17.3513419 C35.4674483,19.6240431 36.75,22.6622436 36.75,26 C36.75,33.0416306 31.0416306,38.75 24,38.75 C16.9583694,38.75 11.25,33.0416306 11.25,26 C11.25,22.7657627 12.4542298,19.8127884 14.4387685,17.5649977 L12.9047966,15.4546269 L15.3318476,13.6912711 L16.6858812,15.555197 C18.2387522,14.4657629 20.0456704,13.7138336 22.0001068,13.4059384 L22,10.3582589 L20.25,10.3582589 L20.25,8.85825893 L26.75,8.85825893 Z M24,14.75 C17.7867966,14.75 12.75,19.7867966 12.75,26 C12.75,32.2132034 17.7867966,37.25 24,37.25 C30.2132034,37.25 35.25,32.2132034 35.25,26 C35.25,19.7867966 30.2132034,14.75 24,14.75 Z M24.4666648,19.3452148 L24.466,26.499 L30.9387207,26.4993034 L30.9387207,27.9993034 L23.7166648,27.9993034 C23.336969,27.9993034 23.0231738,27.7171495 22.9735114,27.3510739 L22.9666648,27.2493034 L22.9666648,19.3452148 L24.4666648,19.3452148 Z" fill-rule="nonzero" fill="#0073BB"/></g><g stroke="none" stroke-width="1" fill="none" fill-rule="evenodd" id="icon-flow-map"><g transform="translate(7.250000, 12.250000)" fill="#0073BB" fill-rule="nonzero"><path d="M18.75 6.75C19.3023 6.75 19.75 7.19772 19.75 7.75V10.75C19.75 11.3023 19.3023 11.75 18.75 11.75H17V14.75H18.75C19.3023 14.75 19.75 15.1977 19.75 15.75V18.75C19.75 19.3023 19.3023 19.75 18.75 19.75H13.75C13.1977 19.75 12.75 19.3023 12.75 18.75V15.75C12.75 15.1977 13.1977 14.75 13.75 14.75H15.5V11.75H13.75C13.1977 11.75 12.75 11.3023 12.75 10.75V7.75C12.75 7.19772 13.1977 6.75 13.75 6.75H18.75ZM18.25 16.25H14.25V18.25H18.25V16.25ZM18.25 8.25H14.25V10.25H18.25V8.25Z" fill="false"/><path d="M4.36774 12.9782L4.25582 12.9874L4.16664 12.9828L4.0991 12.9721L4.01773 12.9507L3.91439 12.9084L3.84086 12.8662L3.80379 12.8403L3.71967 12.7677L0.21967 9.26773C-0.0732233 8.97484 -0.0732233 8.49996 0.21967 8.20707C0.485936 7.9408 0.9026 7.9166 1.19621 8.13445L1.28033 8.20707L3.5 10.427V5.75C3.5 2.64821 5.95602 0.120063 9.02944 0.00415208L9.25 0H24.25C27.3101 0 29.8183 2.39279 29.9906 5.418L29.9991 5.65629L30 7.75C30 8.16421 29.6642 8.5 29.25 8.5C28.8358 8.5 28.5 8.16421 28.5 7.75L28.4992 5.66855C28.4572 3.42607 26.6797 1.6129 24.4594 1.50507L24.25 1.5H9.25C6.97183 1.5 5.11231 3.29251 5.0049 5.54408L5 5.75V10.426L7.21967 8.20707L7.30379 8.13445C7.5974 7.9166 8.01406 7.9408 8.28033 8.20707C8.5466 8.47334 8.5708 8.89 8.35295 9.18361L8.28033 9.26773L4.78033 12.7677C4.7427 12.8054 4.70207 12.8382 4.65921 12.8661L4.58539 12.9085L4.50826 12.9417L4.44164 12.9626L4.36774 12.9782Z" fill="false"/><path d="M29.1567 12.4673L29.2442 12.4615L29.3612 12.4698L29.4099 12.4787L29.4761 12.4963L29.5349 12.5175L29.6052 12.5507L29.6962 12.6086L29.7803 12.6812L33.2803 16.1812C33.5732 16.4741 33.5732 16.949 33.2803 17.2419C33.0141 17.5081 32.5974 17.5323 32.3038 17.3145L32.2197 17.2419L30 15.0225V19.75C30 22.8518 27.544 25.3799 24.4706 25.4959L24.25 25.5H9.25C6.22365 25.5 3.73213 23.158 3.5153 20.1725L3.503 19.9226L3.5 17.75C3.5 17.3358 3.83579 17 4.25 17C4.6297 17 4.94349 17.2822 4.99315 17.6482L5 17.75L5.00248 19.8967C5.07738 22.112 6.8452 23.8894 9.04276 23.995L9.25 24H24.25C26.5282 24 28.3877 22.2075 28.4951 19.9559L28.5 19.75V15.0215L26.2803 17.2419L26.1962 17.3145C25.9026 17.5323 25.4859 17.5081 25.2197 17.2419C24.9534 16.9756 24.9292 16.5589 25.1471 16.2653L25.2197 16.1812L28.7197 12.6812L28.797 12.6137L28.8948 12.5507L28.965 12.5176L29.0427 12.4906L29.09 12.4787L29.1567 12.4673Z" fill="false"/></g></g><g stroke="none" stroke-width="1" fill="none" fill-rule="evenodd" id="icon-flow-distributedmap"><use href="#icon-flow-map"/></g><g stroke="none" stroke-width="1" fill="none" fill-rule="evenodd" id="icon-flow-choice"><g transform="translate(9.252020, 8.729185)" fill="#0073BB" fill-rule="nonzero"><path d="M13.7176503,0.219669914 C13.9839168,-0.0465966484 14.4005805,-0.0708026996 14.694192,0.147051761 L14.7783104,0.219669914 L26.7991257,12.2404852 C27.0653923,12.5067518 27.0895983,12.9234154 26.8717439,13.2170269 L26.7991257,13.3011454 L19.848,20.251 L27.063,27.58 L27.0635443,24.4725437 C27.0635443,24.0583302 27.3993308,23.7225437 27.8135443,23.7225437 C28.1901021,23.7225437 28.5018441,24.0000532 28.5554124,24.3617142 L28.5635443,24.4725437 L28.5635443,29.4222912 C28.5635443,29.4735748 28.5583971,29.5236562 28.5485912,29.5720469 L28.5290567,29.6477745 L28.4912259,29.7440224 L28.4674556,29.7898473 L28.4399848,29.8348433 L28.3922808,29.8993609 L28.3266417,29.9693147 L28.2903734,30.0012261 L28.2103598,30.0588356 L28.1372883,30.0990133 L28.0408973,30.1372113 L27.9243738,30.1641593 C27.8841362,30.1698129 27.8491297,30.1722912 27.8135443,30.1722912 L22.8637969,30.1722912 C22.4495833,30.1722912 22.1137969,29.8365048 22.1137969,29.4222912 C22.1137969,29.0457334 22.3913063,28.7339914 22.7529674,28.6804231 L22.8637969,28.6722912 L26.032,28.672 L18.787,21.312 L14.7783104,25.3219606 C14.5120439,25.5882272 14.0953802,25.6124333 13.8017687,25.3945788 L13.7176503,25.3219606 L9.63,21.234 L2.386,28.671 L5.69974747,28.6722912 L5.81057697,28.6804231 C6.17223802,28.7339914 6.44974747,29.0457334 6.44974747,29.4222912 C6.44974747,29.801987 6.16759359,30.1157822 5.80151803,30.1654446 L5.69974747,30.1722912 L0.75,30.1722912 L0.645175107,30.1650238 L0.571316134,30.150876 L0.491748953,30.1266437 L0.399838514,30.0857012 L0.323957521,30.0396165 L0.243169757,29.975129 L0.170912131,29.8989347 L0.109961584,29.8134582 L0.0656949991,29.7297074 L0.0297396696,29.6320944 L0.0076057584,29.5294944 L6.67910172e-13,29.4222912 L6.67910172e-13,24.4725437 L0.00813192572,24.3617142 C0.0617002376,24.0000532 0.373442216,23.7225437 0.75,23.7225437 C1.12969577,23.7225437 1.44349096,24.0046976 1.49315338,24.3707732 L1.5,24.4725437 L1.499,27.433 L8.569,20.174 L1.69683498,13.3011454 C1.43056842,13.0348788 1.40636237,12.6182151 1.62421683,12.3246036 L1.69683498,12.2404852 L13.7176503,0.219669914 Z M14.3527697,23.728356 L25.2081355,12.7708153 L14.2479803,1.81066017 L3.28782524,12.7708153 L9.616,19.099 L14.3527697,23.728356 Z" fill="false"/><path d="M15.2319803,14.0468153 L15.2319803,13.2668153 C16.0033137,12.8508153 16.5579803,12.4218153 16.8959803,11.9798153 C17.2339803,11.5378153 17.4029803,11.0178153 17.4029803,10.4198153 C17.4029803,9.65714861 17.151647,9.06131528 16.6489803,8.63231528 C16.1463137,8.20331528 15.448647,7.98881528 14.5559803,7.98881528 C13.6979803,7.98881528 12.874647,8.19248195 12.0859803,8.59981528 L12.0859803,8.59981528 L12.0859803,10.3288153 C12.8313137,9.98214861 13.4943137,9.80881528 14.0749803,9.80881528 C14.395647,9.80881528 14.6404803,9.87814861 14.8094803,10.0168153 C14.9784803,10.1554819 15.0629803,10.3591486 15.0629803,10.6278153 C15.0629803,10.9138153 14.9763137,11.1651486 14.8029803,11.3818153 C14.629647,11.5984819 14.343647,11.8151486 13.9449803,12.0318153 L13.9449803,12.0318153 L13.1909803,12.4348153 L13.3339803,14.0468153 L15.2319803,14.0468153 Z M14.3089803,17.4398153 C14.7249803,17.4398153 15.0608137,17.3141486 15.3164803,17.0628153 C15.572147,16.8114819 15.6999803,16.4821486 15.6999803,16.0748153 C15.6999803,15.6674819 15.572147,15.3381486 15.3164803,15.0868153 C15.0608137,14.8354819 14.7249803,14.7098153 14.3089803,14.7098153 C13.8929803,14.7098153 13.557147,14.8354819 13.3014803,15.0868153 C13.0458137,15.3381486 12.9179803,15.6674819 12.9179803,16.0748153 C12.9179803,16.4821486 13.0458137,16.8114819 13.3014803,17.0628153 C13.557147,17.3141486 13.8929803,17.4398153 14.3089803,17.4398153 Z" fill="false"/></g></g><g stroke="none" stroke-width="1" fill="none" fill-rule="evenodd" id="icon-flow-parallel"><g transform="translate(7.794758, 8.750000)" fill="#0073BB" fill-rule="nonzero"><path d="M16.199562,30.9615157 L16.1088907,30.9567289 L16.0428411,30.9462621 L15.9289205,30.9134016 L15.8581395,30.8824655 L15.747534,30.8144639 L15.6634156,30.7418457 L12.1634156,27.2418457 C11.8705224,26.9489525 11.8705224,26.4740788 12.1634156,26.1811856 C12.4296821,25.914919 12.8463458,25.890713 13.1399573,26.1085674 L13.2240758,26.1811856 L15.455,28.412 L15.455,12.999 L4.95524179,12.999 L4.955,28.446 L7.21966991,26.1811856 L7.30378835,26.1085674 C7.59739984,25.890713 8.01406352,25.914919 8.28033009,26.1811856 C8.54659665,26.4474521 8.5708027,26.8641158 8.35294824,27.1577273 L8.28033009,27.2418457 L4.78033009,30.7418457 L4.69621165,30.8144639 L4.689,30.818 C4.66089447,30.8406686 4.6237969,30.8633711 4.58539483,30.8825712 L4.50825575,30.9158403 L4.44163507,30.9367462 L4.36774058,30.9522701 L4.27779844,30.9610057 L4.22212648,30.9610007 L4.09909543,30.9462621 L3.99176083,30.9158467 L3.9143938,30.8824655 L3.82554184,30.8300094 L3.80378835,30.8144639 L3.71966991,30.7418457 L0.219669914,27.2418457 C-0.0732233047,26.9489525 -0.0732233047,26.4740788 0.219669914,26.1811856 C0.485936477,25.914919 0.902600159,25.890713 1.19621165,26.1085674 L1.28033009,26.1811856 L3.455,28.356 L3.45524179,12.25 C3.45524179,11.8703042 3.73739568,11.556509 4.10347124,11.5068466 L4.20524179,11.5 L15.455,11.502 L15.4552418,-1.42108547e-13 L16.9552418,-1.42108547e-13 L16.955,11.495 L28.1555171,11.5 C28.5351143,11.5001394 28.8487603,11.7822674 28.8983985,12.1482549 L28.9052418,12.25 L28.905,28.44 L31.1641955,26.1811856 L31.2483139,26.1085674 C31.5419254,25.890713 31.9585891,25.914919 32.2248557,26.1811856 C32.4911222,26.4474521 32.5153283,26.8641158 32.2974738,27.1577273 L32.2248557,27.2418457 L28.7248557,30.7418457 C28.6845386,30.7821628 28.6407734,30.8169302 28.5945094,30.8461478 L28.5328469,30.8811 L28.4268027,30.9248089 L28.3112733,30.9524264 L28.1887092,30.9615157 L28.1087231,30.9566189 L28.0352714,30.9445058 L27.9277401,30.9126603 L27.8920604,30.8980433 L27.8568141,30.8814079 C27.8351606,30.8704626 27.8145136,30.8587698 27.7943421,30.8460217 C27.7482777,30.8169302 27.7045126,30.7821628 27.6641955,30.7418457 L24.1641955,27.2418457 C23.8713023,26.9489525 23.8713023,26.4740788 24.1641955,26.1811856 C24.4304621,25.914919 24.8471258,25.890713 25.1407372,26.1085674 L25.2248557,26.1811856 L27.405,28.362 L27.4052418,12.999 L16.955,12.992 L16.955,28.389 L19.1634156,26.1811856 L19.247534,26.1085674 C19.5411455,25.890713 19.9578092,25.914919 20.2240758,26.1811856 C20.4903423,26.4474521 20.5145484,26.8641158 20.2966939,27.1577273 L20.2240758,27.2418457 L16.7240758,30.7418457 L16.6399573,30.8144639 L16.636,30.816 L16.589136,30.8490255 L16.5330413,30.8806066 L16.4260228,30.9248089 L16.3532729,30.9444467 L16.2795333,30.9566255 L16.199562,30.9615157 Z" fill="false"/></g></g><g stroke="none" stroke-width="1" fill="none" fill-rule="evenodd" id="icon-flow-fail"><g transform="translate(11.250000, 12.250000)" fill="#D13212" fill-rule="nonzero"><path d="M12.75,0 C5.70836944,0 0,5.70836944 0,12.75 C0,19.7916306 5.70836944,25.5 12.75,25.5 C19.7916306,25.5 25.5,19.7916306 25.5,12.75 C25.5,5.70836944 19.7916306,0 12.75,0 Z M12.75,1.5 C18.9632034,1.5 24,6.53679656 24,12.75 C24,18.9632034 18.9632034,24 12.75,24 C6.53679656,24 1.5,18.9632034 1.5,12.75 C1.5,6.53679656 6.53679656,1.5 12.75,1.5 Z"/><path d="M16.5831403,8.21116377 C16.8767518,7.99330931 17.2934155,8.01751536 17.559682,8.28378193 C17.8259486,8.55004849 17.8501547,8.96671217 17.6323002,9.26032366 L17.559682,9.3444421 L13.622464,13.282112 L17.559682,17.2196699 C17.8525753,17.5125631 17.8525753,17.9874369 17.559682,18.2803301 C17.2934155,18.5465966 16.8767518,18.5708027 16.5831403,18.3529482 L16.4990219,18.2803301 L12.561464,14.343112 L8.62379406,18.2803301 L8.53967563,18.3529482 C8.24606413,18.5708027 7.82940045,18.5465966 7.56313389,18.2803301 C7.29686733,18.0140635 7.27266128,17.5973998 7.49051574,17.3037883 L7.56313389,17.2196699 L11.500464,13.282112 L7.56313389,9.3444421 C7.27024067,9.05154888 7.27024067,8.57667514 7.56313389,8.28378193 C7.82940045,8.01751536 8.24606413,7.99330931 8.53967563,8.21116377 L8.62379406,8.28378193 L12.561464,12.221112 L16.4990219,8.28378193 L16.5831403,8.21116377 Z"/></g></g><g stroke="none" stroke-width="1" fill="none" fill-rule="evenodd" id="icon-flow-distributedmap"><use href="#icon-flow-map"/></g><g stroke="none" stroke-width="1" fill="none" fill-rule="evenodd" id="icon-service-lam"><polygon fill="url(#gradient-orange)" fill-rule="nonzero" points="0 0 48 0 48 48 0 48"/><g transform="translate(11, 10)" fill="#FFFFFF"><path d="M26.5889213,27.8937088 L19.6925948,27.8937088 C19.4772752,27.8931074 19.2813916,27.7706914 19.1888047,27.578869 L9.43766764,7.45673404 L5.31218659,7.45673404 C5.00303594,7.45673404 4.75241983,7.20943823 4.75241983,6.90438337 L4.75241983,0.828526005 C4.75241983,0.523471153 5.00303594,0.276175335 5.31218659,0.276175335 L13.9325948,0.276175335 C14.1479143,0.276776788 14.3437979,0.399192787 14.4363848,0.591015217 L24.1427405,20.7131501 L26.5889213,20.7131501 C26.8980719,20.7131501 27.148688,20.9604459 27.148688,21.2655008 L27.148688,27.3413582 C27.148688,27.646413 26.8980719,27.8937088 26.5889213,27.8937088 Z M20.0452478,26.7890075 L26.0291545,26.7890075 L26.0291545,21.8178515 L23.7900875,21.8178515 C23.5747679,21.81725 23.3788843,21.694834 23.2862974,21.5030116 L13.5799417,1.38087667 L5.87755102,1.38087667 L5.87755102,6.3520327 L9.79591837,6.3520327 C10.0112379,6.35263416 10.2071215,6.47505016 10.2997085,6.66687259 L20.0452478,26.7890075 Z"/><path d="M8.10542274,27.8937099 L0.82845481,27.8937099 C0.635054571,27.8940907 0.455155006,27.7959347 0.352653061,27.634104 C0.243858391,27.4681848 0.233185428,27.2575536 0.324664723,27.0817533 L7.93749271,11.3894708 C8.03007964,11.1976484 8.22596323,11.0752324 8.4412828,11.0746298 L8.4412828,11.0746298 C8.65533487,11.0742082 8.85089022,11.1942751 8.94507289,11.3839473 L12.5891545,18.7799228 C12.6634688,18.931712 12.6634688,19.1086786 12.5891545,19.2604679 L8.6148105,27.5457279 C8.53147526,27.7523199 8.33072312,27.8894609 8.10542274,27.8937099 L8.10542274,27.8937099 Z M1.72408163,26.7890075 L7.75276968,26.7890075 L11.4640233,19.0560981 L8.44688047,12.8973881 L1.72408163,26.7890075 Z"/></g></g><g stroke="none" stroke-width="0.3" fill="none" fill-rule="evenodd" id="icon-service-amazonbedrock"><polygon fill="url(#gradient-turquoise)" fill-rule="nonzero" points="0 0 48 0 48 48 0 48"/><g transform="translate(10.200000, 9.500000) scale(1.85)"><path d="M8,14.1397014 L5.574,14.9487014 L4.628,14.3177014 L5.658,13.9737014 L5.342,13.0257014 L3.574,13.6147014 L3,13.2327014 L3,10.4997014 C3,10.3107014 2.893,10.1377014 2.724,10.0527014 L1,9.19070136 L1,6.80870136 L2.5,6.05870136 L4,6.80870136 L4,8.49970136 C4,8.68970136 4.107,8.86270136 4.276,8.94770136 L6.276,9.94770136 L6.724,9.05270136 L5,8.19070136 L5,6.80870136 L6.724,5.94770136 C6.893,5.86270136 7,5.68970136 7,5.49970136 L7,3.99970136 L6,3.99970136 L6,5.19070136 L4.5,5.94070136 L3,5.19070136 L3,2.76770136 L4,2.10070136 L4,3.99970136 L5,3.99970136 L5,1.43470136 L5.574,1.05170136 L8,1.86070136 L8,14.1397014 Z M13.5,12.9997014 C13.775,12.9997014 14,13.2237014 14,13.4997014 C14,13.7757014 13.775,13.9997014 13.5,13.9997014 C13.225,13.9997014 13,13.7757014 13,13.4997014 C13,13.2237014 13.225,12.9997014 13.5,12.9997014 L13.5,12.9997014 Z M12.5,1.99970136 C12.775,1.99970136 13,2.22370136 13,2.49970136 C13,2.77570136 12.775,2.99970136 12.5,2.99970136 C12.225,2.99970136 12,2.77570136 12,2.49970136 C12,2.22370136 12.225,1.99970136 12.5,1.99970136 L12.5,1.99970136 Z M14.5,7.99970136 C14.775,7.99970136 15,8.22370136 15,8.49970136 C15,8.77570136 14.775,8.99970136 14.5,8.99970136 C14.225,8.99970136 14,8.77570136 14,8.49970136 C14,8.22370136 14.225,7.99970136 14.5,7.99970136 L14.5,7.99970136 Z M13.092,8.99970136 C13.299,9.58070136 13.849,9.99970136 14.5,9.99970136 C15.327,9.99970136 16,9.32770136 16,8.49970136 C16,7.67270136 15.327,6.99970136 14.5,6.99970136 C13.849,6.99970136 13.299,7.41970136 13.092,7.99970136 L9,7.99970136 L9,5.99970136 L12.5,5.99970136 C12.776,5.99970136 13,5.77670136 13,5.49970136 L13,3.90770136 C13.581,3.70070136 14,3.15070136 14,2.49970136 C14,1.67270136 13.327,0.999701362 12.5,0.999701362 C11.673,0.999701362 11,1.67270136 11,2.49970136 C11,3.15070136 11.419,3.70070136 12,3.90770136 L12,4.99970136 L9,4.99970136 L9,1.49970136 C9,1.28470136 8.862,1.09370136 8.658,1.02570136 L5.658,0.0257013622 C5.511,-0.0232986378 5.351,-0.00129863776 5.223,0.0837013622 L2.223,2.08370136 C2.084,2.17670136 2,2.33270136 2,2.49970136 L2,5.19070136 L0.276,6.05270136 C0.107,6.13770136 0,6.31070136 0,6.49970136 L0,9.49970136 C0,9.68970136 0.107,9.86270136 0.276,9.94770136 L2,10.8087014 L2,13.4997014 C2,13.6667014 2.084,13.8237014 2.223,13.9157014 L5.223,15.9157014 C5.306,15.9717014 5.402,15.9997014 5.5,15.9997014 C5.553,15.9997014 5.606,15.9917014 5.658,15.9737014 L8.658,14.9737014 C8.862,14.9067014 9,14.7157014 9,14.4997014 L9,11.9997014 L11.293,11.9997014 L12.146,12.8537014 L12.159,12.8407014 C12.061,13.0407014 12,13.2627014 12,13.4997014 C12,14.3267014 12.673,14.9997014 13.5,14.9997014 C14.327,14.9997014 15,14.3267014 15,13.4997014 C15,12.6727014 14.327,11.9997014 13.5,11.9997014 C13.262,11.9997014 13.04,12.0607014 12.841,12.1597014 L12.854,12.1467014 L11.854,11.1467014 C11.76,11.0527014 11.633,10.9997014 11.5,10.9997014 L9,10.9997014 L9,8.99970136 L13.092,8.99970136 Z" fill="#FFFFFF"/></g></g><g stroke="none" stroke-width="1" fill="none" fill-rule="evenodd" id="icon-service-s3"><polygon fill="url(#gradient-green)" fill-rule="nonzero" points="0 0 48 0 48 48 0 48"/><g transform="translate(8 8) scale(0.033229491173416406)"><path d="M854.6 580.4L862 532.2C925.1 569.8 926.3 585.7 926.2 586.3 926 586.4 914.7 595.2 854.6 580.4L854.6 580.4ZM477.4 442.1C477.4 462.4 460.9 479 440.6 479 420.4 479 403.9 462.4 403.9 442.1 403.9 421.8 420.4 405.3 440.6 405.3 460.9 405.3 477.4 421.8 477.4 442.1L477.4 442.1ZM768.8 898.8C768.8 903.4 750.5 910.3 734.4 916.5L717.9 922.8C700.3 929.8 679.5 936.1 656.1 941.5 597.7 955 517.2 963.2 440.6 963.2 236.8 963.2 128.2 925.8 128.1 896.5L46.5 243.4C116.8 297.2 261.3 331.6 440.6 331.6 612.1 331.6 787.5 298.4 869.7 240L819.1 570.4C712.7 538 582.3 475.6 517.9 444.6L514 442.7C514 442.5 514.1 442.3 514.1 442.1 514.1 401.5 481.1 368.4 440.6 368.4 400.1 368.4 367.2 401.5 367.2 442.1 367.2 482.8 400.1 515.8 440.6 515.8 467.8 515.8 491.2 500.8 504 478.7 570.9 510.9 704.4 574.7 813.5 607.2L768.8 898.8ZM440.6 36.8C687.9 36.8 879.8 105.7 881.2 165.2L880.3 170.7C870.3 229.1 682.1 294.8 440.6 294.8 204.1 294.8 44 230.9 37.3 169.7L36.8 165.3C37.6 103.2 199.6 36.8 440.6 36.8L440.6 36.8ZM868 493.1L917.8 168.6C917.8 167.7 918 166.8 918 165.8 918 62 675.3 0 440.6 0 185.3 0 0 69.7 0 165.8 0 166.6 0.1 167.3 0.1 168.1L91.5 898.8C91.5 995.1 382.3 1000 440.6 1000 519.8 1000 603.4 991.6 664.3 977.4 689.5 971.6 712.1 964.8 731.4 957.1L747.4 950.9C778.6 939 805.5 928.8 805.3 901.6L849 617C873.3 622.9 893.3 625.9 909.3 625.9 930.8 625.9 945.4 620.6 954.2 610.1 961.6 601.2 964.4 590.6 962.3 579.3 957.6 554 928.1 527.2 868 493.1L868 493.1Z" fill="#FFFFFF"/></g></g><g stroke="none" stroke-width="1" fill="none" fill-rule="evenodd" id="icon-service-transcribe"><polygon fill="url(#gradient-turquoise)" fill-rule="nonzero" points="0 0 48 0 48 48 0 48"/><g transform="translate(8 8) scale(0.032)"><path d="M492 327.7L601.4 327.7 601.4 291.3 492 291.3 492 327.7ZM492 219.1L674.3 219.1 674.3 182.7 492 182.7 492 219.1ZM637.8 435.2L856.5 435.2 856.5 398.8 637.8 398.8 637.8 435.2ZM674.3 327.7L856.5 327.7 856.5 291.3 674.3 291.3 674.3 327.7ZM963.6 760.9L674.3 760.9 674.3 797.3 981.8 797.3C991.8 797.3 1000 789.1 1000 779.1L1000 472.3 963.6 472.3 963.6 760.9ZM931.5 182.7L781.1 57.1 781.1 182.7 931.5 182.7ZM1000 200.9L1000 363 963.6 363 963.6 219.1 762.8 219.1C752.8 219.1 744.6 210.9 744.6 200.9L744.6 36.4 455 36.5 455 283.3 418.5 283.3 418.5 18.3C418.5 8.2 426.7 0.1 436.8 0.1L762.8 0C767.1 0 771.2 1.4 774.5 4.2L993.4 186.9C997.7 190.4 1000 195.6 1000 200.9L1000 200.9ZM127.5 727.2L164 727.2 164 581.5 127.5 581.5 127.5 727.2ZM200.4 763.6L236.9 763.6 236.9 508.7 200.4 508.7 200.4 763.6ZM274.5 727.2L310.9 727.2 310.9 545.1 274.5 545.1 274.5 727.2ZM344.5 763.6L381 763.6 381 508.7 344.5 508.7 344.5 763.6ZM418 727.2L454.4 727.2 454.4 545.1 418 545.1 418 727.2ZM491.4 763.6L527.9 763.6 527.9 508.7 491.4 508.7 491.4 763.6ZM563.2 690.8L599.7 690.8 599.7 545.1 563.2 545.1 563.2 690.8ZM586.2 790L616.6 810.1C555.6 902.2 462.9 955 362.2 955 307.4 955 245.8 938.9 198.5 912.5L34.1 997.5C30.6 999.2 26.9 1000 23.3 1000 17 1000 11 997.5 6.5 992.9-0.5 985.6-2 974.7 2.7 965.8L87.8 802.5C65.8 766.8 35 704.6 35 636.9 35 463.5 176 332.7 363 332.7 427.7 332.7 474.2 353.2 524.3 383.9L505.2 415C460.4 387.5 419.1 369.1 363 369.1 221.7 369.1 71.5 463 71.5 636.9 71.5 684 90.7 740.4 124.1 791.7 127.7 797.2 128 804.2 125 810L54 946.3 190.6 875.6C196.3 872.6 203 872.9 208.5 876.2 251.4 902.4 310.2 918.6 362.2 918.6 451.7 918.6 531.3 872.9 586.2 790L586.2 790Z" fill="#FFFFFF"/></g></g><g stroke="none" stroke-width="1" fill="none" fill-rule="evenodd" id="icon-service-comprehend"><polygon fill="url(#gradient-turquoise)" fill-rule="nonzero" points="0 0 48 0 48 48 0 48"/><g transform="translate(8 8) scale(0.032)"><path d="M750 1000L857.1 1000 857.1 964.3 750 964.3 750 1000ZM107.1 678.6L392.8 678.6 392.8 642.9 107.1 642.9 107.1 678.6ZM392.8 571.4L535.7 571.4 535.7 535.7 392.8 535.7 392.8 571.4ZM107.1 571.4L357.1 571.4 357.1 535.7 107.1 535.7 107.1 571.4ZM107.1 250L321.4 250 321.4 214.3 107.1 214.3 107.1 250ZM867.1 787.5C861 790.5 857.1 796.8 857.1 803.6L857.1 892.9 819 892.9 819 750 857.1 750 857.1 714.3 819 714.3 783.3 714.3 750 714.3 750 750 785.7 750 785.7 892.9 747.6 892.9 747.6 803.6C747.6 796.8 743.7 790.6 737.6 787.6 736.7 787.1 641.5 738.6 642.8 620 642.2 586.8 659.3 549.9 689.8 518.7 722.8 484.9 765.4 464.5 803.7 464.3L804.3 464.3C840.8 464.3 882.5 484.4 915.9 518.2 946.8 549.4 964.9 587.5 964.3 620.5 965.6 737.8 871.2 785.5 867.1 787.5L867.1 787.5ZM941.3 493.1C901.3 452.6 850.2 428.6 804.3 428.6L803.4 428.6C755.8 428.9 703.7 453.3 664.2 493.8 627.2 531.8 606.4 578 607.1 620.1 605.8 737.4 683.6 796.4 711.8 813.9L711.8 910.7C711.8 920.6 719.8 928.6 729.7 928.6L875 928.6C884.8 928.6 892.8 920.6 892.8 910.7L892.8 814C921.7 796.6 1001.3 737.7 1000 620.6 1000.7 578.1 979.3 531.6 941.3 493.1L941.3 493.1ZM107.1 464.3L535.7 464.3 535.7 428.6 107.1 428.6 107.1 464.3ZM250 357.1L535.7 357.1 535.7 321.4 250 321.4 250 357.1ZM107.1 357.1L214.3 357.1 214.3 321.4 107.1 321.4 107.1 357.1ZM428.6 61L581.9 214.3 428.6 214.3 428.6 61ZM607.1 892.9L35.7 892.9 35.7 35.7 392.8 35.7 392.8 232.1C392.8 242 400.8 250 410.7 250L607.1 250 607.1 464.3 642.8 464.3 642.8 230.4C642.7 225.9 641 222.9 637.6 219.5L428.6 0 17.9 0.1C8 0.1 0 8.1 0 17.9L0 910.7C0 920.6 8 928.6 17.9 928.6L625 928.6C634.8 928.6 642.8 920.6 642.8 910.7L642.8 785.7 607.1 785.7 607.1 892.9Z" fill="#FFFFFF"/></g></g></defs></g></svg>